<mxfile host="app.diagrams.net" agent="Mozilla/5.0 (Macintosh; Intel Mac OS X 10_15_7) AppleWebKit/537.36 (KHTML, like Gecko) Chrome/131.0.0.0 Safari/537.36" version="26.0.6">
  <diagram name="Page-1" id="R49TecLUTOstNUkJ9aKS">
    <mxGraphModel dx="1194" dy="709" grid="1" gridSize="10" guides="1" tooltips="1" connect="1" arrows="1" fold="1" page="1" pageScale="1" pageWidth="1169" pageHeight="827" math="0" shadow="0">
      <root>
        <mxCell id="0" />
        <mxCell id="1" parent="0" />
        <mxCell id="x3GaQyjpXIpGyGbPCgL1-2" value="&lt;div&gt;public/posts&lt;/div&gt;.md files" style="rounded=0;whiteSpace=wrap;html=1;" vertex="1" parent="1">
          <mxGeometry x="290" y="120" width="120" height="60" as="geometry" />
        </mxCell>
        <mxCell id="x3GaQyjpXIpGyGbPCgL1-3" value="server side&amp;nbsp;&lt;div&gt;nextjs&lt;/div&gt;" style="rounded=0;whiteSpace=wrap;html=1;" vertex="1" parent="1">
          <mxGeometry x="290" y="290" width="120" height="190" as="geometry" />
        </mxCell>
        <mxCell id="x3GaQyjpXIpGyGbPCgL1-4" value="browser" style="rounded=0;whiteSpace=wrap;html=1;" vertex="1" parent="1">
          <mxGeometry x="620" y="290" width="120" height="190" as="geometry" />
        </mxCell>
        <mxCell id="x3GaQyjpXIpGyGbPCgL1-5" value="" style="endArrow=classic;html=1;rounded=0;entryX=0.25;entryY=1;entryDx=0;entryDy=0;exitX=0.25;exitY=0;exitDx=0;exitDy=0;" edge="1" parent="1" source="x3GaQyjpXIpGyGbPCgL1-3" target="x3GaQyjpXIpGyGbPCgL1-2">
          <mxGeometry width="50" height="50" relative="1" as="geometry">
            <mxPoint x="220" y="390" as="sourcePoint" />
            <mxPoint x="270" y="340" as="targetPoint" />
          </mxGeometry>
        </mxCell>
        <mxCell id="x3GaQyjpXIpGyGbPCgL1-6" value="getSortedPostsData" style="text;html=1;align=center;verticalAlign=middle;resizable=0;points=[];autosize=1;strokeColor=none;fillColor=none;" vertex="1" parent="1">
          <mxGeometry x="185" y="218" width="130" height="30" as="geometry" />
        </mxCell>
        <mxCell id="x3GaQyjpXIpGyGbPCgL1-7" value="getPostData(:id)" style="text;html=1;align=center;verticalAlign=middle;resizable=0;points=[];autosize=1;strokeColor=none;fillColor=none;" vertex="1" parent="1">
          <mxGeometry x="195" y="248" width="110" height="30" as="geometry" />
        </mxCell>
        <mxCell id="x3GaQyjpXIpGyGbPCgL1-8" value="" style="endArrow=classic;html=1;rounded=0;exitX=0.75;exitY=1;exitDx=0;exitDy=0;entryX=0.75;entryY=0;entryDx=0;entryDy=0;" edge="1" parent="1" source="x3GaQyjpXIpGyGbPCgL1-2" target="x3GaQyjpXIpGyGbPCgL1-3">
          <mxGeometry width="50" height="50" relative="1" as="geometry">
            <mxPoint x="220" y="390" as="sourcePoint" />
            <mxPoint x="270" y="340" as="targetPoint" />
          </mxGeometry>
        </mxCell>
        <mxCell id="x3GaQyjpXIpGyGbPCgL1-9" value="ChapterNavigation&lt;div&gt;&lt;br&gt;&lt;/div&gt;" style="text;html=1;align=center;verticalAlign=middle;resizable=0;points=[];autosize=1;strokeColor=none;fillColor=none;" vertex="1" parent="1">
          <mxGeometry x="740" y="313" width="120" height="40" as="geometry" />
        </mxCell>
        <mxCell id="x3GaQyjpXIpGyGbPCgL1-10" value="Modal&lt;div&gt;&lt;br&gt;&lt;/div&gt;" style="text;html=1;align=center;verticalAlign=middle;resizable=0;points=[];autosize=1;strokeColor=none;fillColor=none;" vertex="1" parent="1">
          <mxGeometry x="740" y="353" width="60" height="40" as="geometry" />
        </mxCell>
      </root>
    </mxGraphModel>
  </diagram>
</mxfile>
